<?xml version="1.0" encoding="UTF-8"?>
<svg id="Layer_2" data-name="Layer 2" xmlns="http://www.w3.org/2000/svg" viewBox="0 0 88.25 86.04">
  <defs>
    <style>
      .cls-1 {
        fill: #fff;
      }
    </style>
  </defs>
  <g id="Layer_1-2" data-name="Layer 1">
    <path id="Icon_simple-adobephotoshop" data-name="Icon simple-adobephotoshop" class="cls-1" d="m0,0v86.04h88.25V0H0Zm3.68,3.68h80.89v78.69H3.68V3.68Zm17.65,16.47c0-.25.51-.43.82-.43,2.37-.12,5.84-.18,9.48-.18,10.19,0,14.16,5.59,14.16,12.74,0,9.34-6.77,13.35-15.08,13.35-1.4,0-1.88-.06-2.85-.06v14.13c0,.31-.12.43-.42.43h-5.68c-.31,0-.42-.11-.42-.42V20.15h0Zm6.53,19.53c.85.06,1.51.06,2.98.06,4.3,0,8.35-1.51,8.35-7.34,0-4.67-2.89-7.04-7.8-7.04-1.46,0-2.85.06-3.52.12v14.21h0Zm31.65-4.38c-2.91,0-3.88,1.46-3.88,2.67,0,1.33.66,2.24,4.55,4.25,5.76,2.79,7.58,5.46,7.58,9.4,0,5.88-4.49,9.04-10.55,9.04-2.6.09-5.19-.45-7.54-1.58-.24-.12-.29-.3-.29-.61v-5.39c0-.37.18-.49.42-.31,2.2,1.43,4.77,2.19,7.4,2.18,2.91,0,4.12-1.21,4.12-2.85,0-1.33-.85-2.49-4.55-4.43-5.22-2.5-7.4-5.04-7.4-9.29,0-4.73,3.7-8.68,10.13-8.68,2.25-.09,4.49.26,6.6,1.03.25.16.39.44.37.73v5.04c0,.31-.18.49-.55.37-1.97-1.06-4.17-1.61-6.41-1.58v.02Z"/>
  </g>
</svg>