<?xml version="1.0" encoding="UTF-8"?>
<svg id="Layer_2" data-name="Layer 2" xmlns="http://www.w3.org/2000/svg" viewBox="0 0 85.4 83.27">
  <defs>
    <style>
      .cls-1 {
        fill: #fff;
      }
    </style>
  </defs>
  <g id="Layer_1-2" data-name="Layer 1">
    <path id="Icon_simple-adobepremiere" data-name="Icon simple-adobepremiere" class="cls-1" d="m0,0v83.27h85.4V0H0Zm3.56,3.56h78.28v76.15H3.56V3.56Zm18.85,15.94c0-.24.06-.41.36-.41,2.29-.12,5.63-.18,9.16-.18,9.86,0,14.15,5.41,14.15,12.33,0,9.04-6.54,12.92-14.59,12.92-1.35,0-1.82-.06-2.76-.06v13.67c0,.3-.12.41-.41.41h-5.49c-.3,0-.41-.12-.41-.41V19.49Zm6.32,18.91c.82.06,1.47.06,2.88.06,4.17,0,8.07-1.47,8.07-7.1,0-4.52-2.78-6.81-7.54-6.81-1.41,0-2.76.06-3.41.12v13.74Zm22.78-3.23c0-.41,0-1.47-.17-3.46,0-.3.04-.36.27-.47,4.15-1.6,8.56-2.43,13.01-2.47.29,0,.41.06.41.35v5.17c0,.29-.09.35-.39.35-2.27-.14-4.54.09-6.72.7v22.43c0,.3-.12.41-.41.41h-5.59c-.29,0-.41-.12-.41-.41v-22.6Z"/>
  </g>
</svg>