<?xml version="1.0" encoding="UTF-8"?>
<svg id="Layer_2" data-name="Layer 2" xmlns="http://www.w3.org/2000/svg" viewBox="0 0 87.41 85.23">
  <defs>
    <style>
      .cls-1 {
        fill: #fff;
      }
    </style>
  </defs>
  <g id="Layer_1-2" data-name="Layer 1">
    <path id="Icon_simple-adobeillustrator" data-name="Icon simple-adobeillustrator" class="cls-1" d="m0,0v85.23h87.41V0H0Zm3.64,3.64h80.13v77.94H3.64V3.64Zm26.68,44.62l-2.88,10.92c-.06.3-.18.37-.54.37h-5.35c-.36,0-.42-.12-.36-.54l10.34-36.22c.26-.99.38-2.01.36-3.03,0-.24.12-.36.3-.36h7.63c.24,0,.36.07.42.36l11.6,39.31c.06.3,0,.48-.3.48h-6.01c-.3,0-.48-.07-.54-.31l-3-10.98h-11.69.01Zm10.15-5.92c-1.02-4.03-3.42-12.85-4.33-17.12h-.06c-.78,4.26-2.7,11.47-4.21,17.12h8.6Zm16.39-20.24c0-2.06,1.67-3.73,3.73-3.73s3.73,1.67,3.73,3.73c.14,1.92-1.31,3.59-3.23,3.73-.19.01-.37.01-.56,0-1.89.15-3.53-1.26-3.68-3.14-.02-.19-.01-.39,0-.58h.01Zm.41,8.28c0-.29.12-.4.42-.4h5.72c.32,0,.44.12.44.42v28.76c0,.3-.06.42-.42.42h-5.64c-.36,0-.48-.18-.48-.47v-28.73h-.03Z"/>
  </g>
</svg>