<?xml version="1.0" encoding="UTF-8"?>
<svg id="Layer_2" data-name="Layer 2" xmlns="http://www.w3.org/2000/svg" viewBox="0 0 89.45 87.22">
  <defs>
    <style>
      .cls-1 {
        fill: #fff;
      }
    </style>
  </defs>
  <g id="Layer_1-2" data-name="Layer 1">
    <path id="Icon_simple-adobexd" data-name="Icon simple-adobexd" class="cls-1" d="m73.61,0H15.84C7.1,0,0,7.07,0,15.81c0,0,0,.02,0,.03v55.53c0,8.74,7.07,15.83,15.81,15.84,0,0,.02,0,.03,0h57.77c8.74,0,15.83-7.07,15.84-15.81,0,0,0-.02,0-.03V15.84C89.46,7.1,82.38,0,73.64,0c0,0-.02,0-.03,0Zm12.08,69.92c.04,7.46-5.98,13.53-13.43,13.57-.02,0-.04,0-.06,0H17.26c-7.47-.01-13.52-6.06-13.53-13.53V17.26c.01-7.47,6.06-13.52,13.53-13.53h54.9c7.47,0,13.53,6.06,13.53,13.53v52.66Zm-50.32-29.11l10.44,20.05c.19.3.08.6-.22.6h-6.48c-.34.04-.67-.16-.78-.49-2.38-4.92-4.81-9.84-7.31-15.13h-.08c-2.24,4.99-4.7,10.25-7.08,15.17-.12.26-.39.42-.67.41h-6.15c-.37,0-.41-.3-.22-.52l10.21-19.46-9.88-19.68c-.12-.11-.13-.3-.02-.42.06-.07.15-.11.25-.1h6.41c.3-.06.59.12.67.41,2.35,4.92,4.73,9.99,6.97,14.95h.08c2.16-4.92,4.55-10.03,6.86-14.91.19-.3.3-.49.67-.49h6c.3,0,.41.22.22.52l-9.88,19.08Zm12.26,6.08c0-8.68,5.78-15.47,14.95-15.47.65-.01,1.29.01,1.94.08v-9.88c0-.21.17-.37.37-.37h5.89c.3,0,.37.11.37.3v34.21c-.02,1.22.04,2.44.19,3.65,0,.22-.07.3-.3.41-2.98,1.42-6.24,2.16-9.54,2.16-8.09.04-13.87-4.96-13.87-15.09Zm16.88-9.54c-.69-.26-1.42-.39-2.16-.37-4.7,0-7.98,3.62-7.98,9.62,0,6.86,3.35,9.62,7.57,9.62.88.02,1.75-.11,2.57-.41v-18.45Z"/>
  </g>
</svg>