<?xml version="1.0" encoding="UTF-8"?>
<svg id="Layer_2" data-name="Layer 2" xmlns="http://www.w3.org/2000/svg" viewBox="0 0 85.4 83.27">
  <defs>
    <style>
      .cls-1 {
        fill: #fff;
      }
    </style>
  </defs>
  <g id="Layer_1-2" data-name="Layer 1">
    <path id="Icon_simple-adobeaftereffects" data-name="Icon simple-adobeaftereffects" class="cls-1" d="m0,0v83.27h85.4V0H0Zm3.56,3.56h78.28v76.15H3.56V3.56Zm20.58,43.59l-2.82,10.62c-.06.3-.18.4-.53.4h-5.22c-.36,0-.41-.12-.36-.53l10.11-35.34c.25-.95.37-1.93.35-2.92,0-.24.12-.36.3-.36h7.46c.24,0,.36.06.41.36l11.32,38.32c.06.29,0,.46-.3.46h-5.86c-.29,0-.46-.11-.52-.34l-2.94-10.68h-11.4Zm9.99-5.77c-1-3.94-3.42-12.56-4.29-16.72h-.06c-.76,4.16-2.69,11.2-4.16,16.72h8.51Zm19.08,3.64c.06,4.81,2.35,8.04,7.75,8.04,1.99.06,3.97-.32,5.8-1.1.24-.11.42-.05.42.24v4.46c.02.28-.12.56-.36.71-2.25,1-4.7,1.46-7.15,1.35-9.39,0-12.92-6.93-12.92-14.68,0-8.4,4.35-15.26,11.98-15.26s10.45,6.52,10.45,11.8c.04,1.26-.06,2.52-.3,3.76-.02.25-.22.44-.47.45-1.97.2-3.95.27-5.93.24h-9.27Zm7.22-4.9c.88.04,1.76.02,2.64-.06,0-.24.06-.44.06-.62,0-1.94-.95-5.49-4.65-5.49-3.4,0-4.88,3-5.22,6.16h7.17Z"/>
  </g>
</svg>