<?xml version="1.0" encoding="UTF-8"?>
<svg id="Layer_2" data-name="Layer 2" xmlns="http://www.w3.org/2000/svg" viewBox="0 0 110 110">
  <defs>
    <style>
      .cls-1 {
        fill: #fff;
      }

      .cls-2 {
        fill: #00c85f;
      }

      .cls-3 {
        fill: #fff046;
      }

      .cls-4 {
        fill: #4b82e1;
      }
    </style>
  </defs>
  <g id="Layer_1-2" data-name="Layer 1">
    <g id="brazil-svgrepo-com">
      <circle id="Ellipse_1" data-name="Ellipse 1" class="cls-2" cx="55" cy="55" r="55"/>
      <path id="Path_3" data-name="Path 3" class="cls-3" d="m52.86,22.38L6.16,53.52c-.87.59-1.1,1.77-.52,2.64.14.2.31.38.52.52l46.7,31.14c1.27.85,2.93.85,4.21,0l46.7-31.14c.87-.59,1.1-1.77.52-2.64-.14-.2-.31-.38-.52-.52l-46.69-31.14c-1.27-.85-2.93-.85-4.21,0Z"/>
      <circle id="Ellipse_2" data-name="Ellipse 2" class="cls-4" cx="54.96" cy="55.04" r="22.74"/>
      <path id="Path_4" data-name="Path 4" class="cls-1" d="m35.54,43.26c-.75,1.23-1.38,2.54-1.88,3.89,15.87-1.18,31.43,4.83,42.4,16.36.54-1.33.95-2.72,1.22-4.13-11.1-10.89-26.2-16.72-41.74-16.12Z"/>
    </g>
  </g>
</svg>