<?xml version="1.0" encoding="UTF-8"?>
<svg id="Layer_2" data-name="Layer 2" xmlns="http://www.w3.org/2000/svg" viewBox="0 0 82.89 116.68">
  <defs>
    <style>
      .cls-1 {
        fill: #e06e39;
      }
    </style>
  </defs>
  <g id="Layer_1-2" data-name="Layer 1">
    <path id="Icon_zocial-html5" data-name="Icon zocial-html5" class="cls-1" d="m0,22.89h82.89l-7.83,84.19-33.68,9.6-33.68-9.6L0,22.89Zm7.71-7.11V0h5.34v5.22h4.74V0h5.22v15.77h-5.22v-5.22h-4.74v5.22h-5.34Zm7.71,24.31l2.85,31.54.12-.24h35.57l-1.19,13.4-11.38,3.2-11.5-3.32-.71-8.06h-10.44l1.42,16.13,21.23,6.05,21.23-6.05,2.96-31.66H27.75l-.95-10.55h39.73l.95-10.44H15.41h0ZM25.38,5.34V0h14.47v5.34h-4.62v10.43h-5.21V5.34h-4.63Zm16.72,10.43V0h5.57l3.2,5.46,3.32-5.46h5.57v15.77h-5.1V7.71l-3.79,5.93v-.12l-3.56-5.58v7.83h-5.21Zm20.4,0V0h5.22v10.43h7.35v5.34h-12.57,0Z"/>
  </g>
</svg>