<?xml version="1.0" encoding="UTF-8"?>
<svg id="Layer_2" data-name="Layer 2" xmlns="http://www.w3.org/2000/svg" viewBox="0 0 68.31 65.82">
  <defs>
    <style>
      .cls-1 {
        fill: #fff;
      }
    </style>
  </defs>
  <g id="Layer_1-2" data-name="Layer 1">
    <path id="Icon_simple-jquery" data-name="Icon simple-jquery" class="cls-1" d="m4.34,15.45c-6.05,8.69-5.3,20-.67,29.23.11.22.22.44.34.65.07.15.14.29.22.42.04.08.08.16.13.24.07.15.15.29.23.43l.45.76c.08.14.16.28.26.42.16.27.34.53.5.8.07.11.14.22.22.33.28.43.57.86.88,1.26.22.3.45.6.68.9.08.11.16.22.24.33l.63.77c.08.09.15.19.24.28.28.34.58.66.87.99,0,0,0,.01.01.02.36.46.77.88,1.21,1.25.23.23.46.47.7.7l.29.28c.32.3.63.59.97.88,0,0,0,0,.01,0l.16.14c.29.25.58.51.88.74l.36.3c.24.19.49.38.74.57l.39.3c.27.2.55.4.82.59.1.07.2.14.3.21l.08.07.8.53.34.23c.42.27.83.52,1.25.77.12.06.24.12.35.19.31.18.63.36.94.52.17.1.35.18.52.27.21.12.44.24.66.36.06.02.11.04.16.07.09.04.18.09.27.13.34.17.7.33,1.07.5.07.03.15.06.22.1.41.18.82.35,1.25.52.1.03.2.08.3.11.39.14.78.29,1.17.43l.14.05c.44.15.87.29,1.31.43.1.03.21.07.32.09.44.15.89.28,1.35.39,29.24,5.33,37.74-17.58,37.74-17.58-7.14,9.3-19.81,11.75-31.81,9.02-.44-.1-.89-.24-1.34-.38-.54-.16-1.08-.33-1.62-.52l-.18-.07c-.39-.13-.76-.28-1.14-.42-.1-.04-.21-.08-.31-.12-.42-.17-.83-.34-1.23-.52-.09-.03-.16-.07-.25-.1-.34-.16-.69-.32-1.03-.49-.1-.05-.2-.09-.3-.15-.27-.12-.54-.27-.8-.4-.18-.09-.36-.18-.53-.27-.32-.17-.64-.36-.97-.53-.1-.07-.21-.12-.32-.19-.42-.25-.84-.5-1.25-.77-.11-.07-.23-.15-.34-.22-.3-.19-.6-.38-.89-.59-.1-.07-.19-.14-.29-.21-.28-.2-.56-.4-.84-.6-.12-.1-.25-.19-.38-.28-.25-.2-.5-.38-.75-.59l-.34-.27c-.32-.26-.64-.53-.95-.8-.03-.03-.07-.06-.1-.09l-.99-.9-.28-.27c-.23-.24-.47-.47-.71-.7l-.28-.28c-.3-.3-.59-.61-.88-.92l-.04-.05c-.3-.33-.6-.67-.89-1.01-.08-.09-.15-.18-.23-.28l-.64-.79c-.33-.42-.65-.85-.97-1.28-6.65-9.12-9.06-21.66-3.73-31.94m14.07-1.35c-4.39,6.3-4.14,14.71-.72,21.37.56,1.12,1.21,2.2,1.93,3.23.64,1.02,1.4,1.97,2.26,2.81.3.35.64.68.98,1.02l.26.26c.32.31.66.62,1,.93l.04.04c.38.33.78.66,1.18.97.1.07.18.14.27.21.4.31.8.6,1.22.9l.04.03c.18.13.36.24.56.37.08.05.17.12.26.17.3.19.6.38.9.56.05.02.09.05.14.07.26.16.54.31.8.45.09.06.19.1.28.15.19.09.38.19.56.29l.09.04c.38.19.78.37,1.16.54.1.04.18.07.26.11.32.14.64.27.96.39.14.05.28.1.41.15.29.11.6.21.88.31l.4.13c.42.15.84.27,1.28.37,22.57,3.74,27.8-13.64,27.8-13.64-4.71,6.77-13.81,10-23.52,7.48-.43-.11-.85-.24-1.28-.37-.14-.04-.26-.08-.39-.12-.3-.1-.6-.2-.89-.31l-.41-.15c-.32-.13-.64-.25-.96-.38-.1-.04-.19-.07-.26-.11-.4-.18-.8-.36-1.19-.55l-.59-.3-.34-.17c-.26-.14-.5-.28-.76-.43-.06-.03-.12-.06-.18-.1-.3-.19-.62-.37-.9-.56-.1-.05-.19-.12-.28-.18l-.59-.39c-.41-.28-.81-.59-1.22-.89-.09-.08-.18-.15-.27-.22-4.33-3.35-7.55-7.92-9.23-13.13-1.79-5.44-1.21-11.38,1.59-16.37m12.22-.42c-2.51,3.77-2.91,8.57-1.06,12.7,1.98,4.46,5.68,7.93,10.27,9.59.19.07.37.13.56.2l.25.08c.26.08.53.18.8.24,12.47,2.41,15.85-6.4,16.76-7.7-2.97,4.26-7.95,5.29-14.06,3.8-.5-.12-.99-.28-1.47-.46-.6-.21-1.19-.45-1.76-.72-1.08-.53-2.12-1.16-3.08-1.88-5.48-4.14-8.86-12.06-5.3-18.5"/>
  </g>
</svg>