<?xml version="1.0" encoding="UTF-8"?>
<svg id="Layer_2" data-name="Layer 2" xmlns="http://www.w3.org/2000/svg" viewBox="0 0 84.81 84.81">
  <defs>
    <style>
      .cls-1 {
        fill: #ffc813;
      }
    </style>
  </defs>
  <g id="Layer_1-2" data-name="Layer 1">
    <path id="Icon_simple-javascript" data-name="Icon simple-javascript" class="cls-1" d="m0,0h84.81v84.81H0V0Zm77.86,64.58c-.62-3.87-3.14-7.12-10.61-10.15-2.6-1.22-5.49-2.07-6.35-4.03-.31-.79-.36-1.66-.16-2.49.53-2.28,3.23-2.97,5.35-2.33,1.55.52,2.8,1.68,3.45,3.18q3.65-2.39,6.2-3.97c-.58-1-1.27-1.92-2.07-2.76-2.23-2.49-5.19-3.76-10.01-3.65l-2.49.31c-2.34.52-4.45,1.76-6.04,3.55-4.03,4.56-2.87,12.51,2.01,15.8,4.82,3.6,11.88,4.4,12.78,7.79.85,4.13-3.07,5.46-6.95,4.98-2.87-.64-4.45-2.07-6.2-4.72l-6.47,3.71c.72,1.46,1.69,2.79,2.86,3.92,6.15,6.21,21.52,5.89,24.28-3.55.57-1.89.66-3.89.26-5.83l.16.24h0Zm-31.74-25.6h-7.94c0,6.85-.03,13.65-.03,20.51,0,4.35.22,8.35-.49,9.58-1.17,2.43-4.17,2.12-5.53,1.7-1.27-.67-2.3-1.73-2.93-3.02-.12-.25-.27-.48-.45-.69l-6.45,3.97c1.01,2.2,2.63,4.06,4.68,5.36,3.46,1.9,7.51,2.41,11.33,1.43,2.75-.67,5.07-2.49,6.4-4.99,1.8-3.29,1.42-7.32,1.4-11.82.04-7.26,0-14.52,0-21.83v-.2s.02,0,.02,0Z"/>
  </g>
</svg>