<?xml version="1.0" encoding="UTF-8"?>
<svg id="Layer_2" data-name="Layer 2" xmlns="http://www.w3.org/2000/svg" xmlns:xlink="http://www.w3.org/1999/xlink" viewBox="0 0 411.15 157.76">
  <defs>
    <style>
      .cls-1 {
        fill: url(#linear-gradient);
      }

      .cls-1, .cls-2, .cls-3, .cls-4, .cls-5 {
        stroke-width: 0px;
      }

      .cls-2 {
        fill: #008744;
      }

      .cls-3 {
        fill: #fff;
      }

      .cls-4 {
        fill: url(#linear-gradient-2);
      }

      .cls-5 {
        fill: url(#linear-gradient-3);
      }
    </style>
    <linearGradient id="linear-gradient" x1="149.07" y1="113.4" x2="147.83" y2="66.97" gradientTransform="translate(0 156.16) scale(1 -1)" gradientUnits="userSpaceOnUse">
      <stop offset="0" stop-color="#004b44"/>
      <stop offset="1" stop-color="#008744"/>
    </linearGradient>
    <linearGradient id="linear-gradient-2" x1="18.39" y1="123.74" x2="73.72" y2="41.23" gradientTransform="translate(0 156.16) scale(1 -1)" gradientUnits="userSpaceOnUse">
      <stop offset=".22" stop-color="#0057e7"/>
      <stop offset=".81" stop-color="#008744"/>
    </linearGradient>
    <linearGradient id="linear-gradient-3" x1="137.44" y1="21.74" x2="205.56" y2="145.41" gradientTransform="translate(0 156.16) scale(1 -1)" gradientUnits="userSpaceOnUse">
      <stop offset="0" stop-color="#008744"/>
      <stop offset=".1" stop-color="#048742"/>
      <stop offset=".2" stop-color="#10893f"/>
      <stop offset=".3" stop-color="#258b3a"/>
      <stop offset=".4" stop-color="#428f32"/>
      <stop offset=".51" stop-color="#679428"/>
      <stop offset=".61" stop-color="#95991c"/>
      <stop offset=".72" stop-color="#caa00d"/>
      <stop offset=".81" stop-color="#ffa700"/>
    </linearGradient>
  </defs>
  <g id="Layer_2-2" data-name="Layer 2">
    <polygon class="cls-1" points="131.15 62.53 147.15 90.53 166.15 54.53 151.15 28.53 131.15 62.53"/>
    <polygon class="cls-4" points="0 28.53 47.63 111.03 67.26 77.03 39.26 28.53 0 28.53"/>
    <polygon class="cls-2" points="111.53 28.53 56.15 122.53 77.06 156.57 151.15 28.53 111.53 28.53"/>
    <polygon class="cls-5" points="177.15 29.53 121.15 125.53 143.06 156.57 216.41 29.53 177.15 29.53"/>
    <g>
      <path class="cls-2" d="m297.54,116.31h-73.71c1.06,6.5,3.91,11.67,8.53,15.51s10.52,5.76,17.69,5.76c8.57,0,15.94-3,22.11-8.99l19.33,9.08c-4.82,6.84-10.59,11.89-17.31,15.17s-14.71,4.92-23.96,4.92c-14.34,0-26.03-4.52-35.05-13.57s-13.53-20.38-13.53-34,4.5-25.54,13.49-34.75c8.99-9.22,20.27-13.83,33.83-13.83,14.4,0,26.11,4.61,35.13,13.83s13.53,21.39,13.53,36.52l-.08,4.37v-.02Zm-22.95-18.07c-1.52-5.1-4.5-9.25-8.97-12.44-4.46-3.19-9.64-4.79-15.53-4.79-6.4,0-12.01,1.79-16.84,5.38-3.03,2.24-5.84,6.19-8.42,11.85,0,0,49.76,0,49.76,0Z"/>
      <path class="cls-2" d="m338.89,28.64v45.39c4.15-4.15,8.63-7.26,13.45-9.33s9.97-3.11,15.46-3.11c11.94,0,22.08,4.51,30.43,13.53,8.35,9.02,12.52,20.59,12.52,34.71s-4.32,25-12.94,34.17c-8.63,9.16-18.86,13.74-30.68,13.74-5.27,0-10.17-.94-14.71-2.82-4.54-1.88-9.05-4.95-13.53-9.2v9.67h-22.78V28.64h22.78Zm24.12,54.13c-7.23,0-13.22,2.47-17.99,7.4-4.76,4.93-7.14,11.38-7.14,19.33s2.38,14.7,7.14,19.71c4.76,5.02,10.76,7.52,17.99,7.52s12.9-2.55,17.69-7.65c4.79-5.1,7.19-11.6,7.19-19.5s-2.35-14.27-7.06-19.29c-4.71-5.01-10.65-7.52-17.82-7.52h0Z"/>
    </g>
    <rect class="cls-3" x=".15" y="7.53" width="113" height="2"/>
    <rect class="cls-3" x="298.15" y="7.53" width="113" height="2"/>
    <g>
      <path class="cls-3" d="m126.34,21.3V.3h2.4c3.27,5.04,10.95,16.77,12.27,19.05h.03c-.18-3.03-.15-6.12-.15-9.54V.3h1.65v21h-2.22c-3.12-4.86-10.92-17.07-12.42-19.38h-.03c.15,2.76.12,5.82.12,9.63v9.75h-1.65Z"/>
      <path class="cls-3" d="m163.75,10.98h-10.71v8.82h11.73l-.24,1.5h-13.11V.3h12.87v1.5h-11.25v7.68h10.71v1.5Z"/>
      <path class="cls-3" d="m175.48,21.3L169.66.3h1.68c1.41,5.04,4.59,16.65,5.07,19.11h.03c.39-1.95,3.84-13.56,5.31-19.11h1.8c1.38,5.13,4.74,17.46,5.07,19.08h.03c.66-2.97,4.17-14.07,5.61-19.08h1.65l-6.42,21h-1.86c-1.38-4.95-4.65-17.1-5.01-18.9h-.03c-.54,2.73-3.78,13.68-5.28,18.9h-1.83Z"/>
      <path class="cls-3" d="m217.42,21.3v-7.89c0-.18-.06-.39-.12-.48l-7.5-12.63h1.89c2.1,3.57,5.76,9.78,6.66,11.34.9-1.56,4.59-7.71,6.84-11.34h1.8l-7.83,12.75c-.06.12-.09.24-.09.45v7.8h-1.65Z"/>
      <path class="cls-3" d="m249.64,10.65c0,5.73-3.06,10.95-9.54,10.95-5.91,0-9.36-4.77-9.36-10.8s3.33-10.8,9.57-10.8c5.76,0,9.33,4.53,9.33,10.65Zm-17.16.06c0,4.83,2.67,9.39,7.71,9.39,5.43,0,7.71-4.44,7.71-9.42s-2.58-9.18-7.65-9.18c-5.4,0-7.77,4.47-7.77,9.21Z"/>
      <path class="cls-3" d="m258.61,11.49v9.81h-1.65V.3h7.53c4.14,0,6.33,2.22,6.33,5.52,0,2.67-1.59,4.41-3.93,4.92,2.16.51,3.6,1.92,3.6,5.49v.81c0,1.47-.12,3.45.27,4.26h-1.65c-.39-.9-.3-2.58-.3-4.38v-.54c0-3.45-1.02-4.89-5.04-4.89h-5.16Zm0-1.5h5.07c3.69,0,5.4-1.38,5.4-4.14,0-2.58-1.68-4.05-4.95-4.05h-5.52v8.19Z"/>
      <path class="cls-3" d="m278.65.3h1.62v10.92c1.68-1.62,7.68-7.26,11.43-10.92h2.16l-9.42,8.94,9.96,12.06h-2.01l-9.12-11.01-3,2.64v8.37h-1.62V.3Z"/>
    </g>
  </g>
</svg>