<?xml version="1.0" encoding="UTF-8"?><svg id="Layer_2" xmlns="http://www.w3.org/2000/svg" xmlns:xlink="http://www.w3.org/1999/xlink" viewBox="0 0 411.15 160.67"><defs><style>.cls-1{fill:url(#linear-gradient-2);}.cls-2{fill:#fff;}.cls-3{fill:#ffa700;}.cls-4{fill:#008744;}.cls-5{fill:url(#linear-gradient-3);}.cls-6{fill:url(#linear-gradient);}</style><linearGradient id="linear-gradient" x1="149.07" y1="45.68" x2="147.83" y2="92.11" gradientUnits="userSpaceOnUse"><stop offset="0" stop-color="#004b44"/><stop offset="1" stop-color="#008744"/></linearGradient><linearGradient id="linear-gradient-2" x1="18.39" y1="35.34" x2="73.72" y2="117.85" gradientUnits="userSpaceOnUse"><stop offset=".22" stop-color="#0057e7"/><stop offset=".81" stop-color="#008744"/></linearGradient><linearGradient id="linear-gradient-3" x1="137.44" y1="137.34" x2="205.56" y2="13.67" gradientUnits="userSpaceOnUse"><stop offset="0" stop-color="#008744"/><stop offset=".1" stop-color="#048742"/><stop offset=".2" stop-color="#10893f"/><stop offset=".3" stop-color="#258b3a"/><stop offset=".4" stop-color="#428f32"/><stop offset=".51" stop-color="#679428"/><stop offset=".61" stop-color="#95991c"/><stop offset=".72" stop-color="#caa00d"/><stop offset=".81" stop-color="#ffa700"/></linearGradient></defs><g id="Layer_1-2"><polygon class="cls-6" points="131.15 65.45 147.15 93.45 166.15 57.45 151.15 31.45 131.15 65.45"/><polygon class="cls-1" points="0 31.45 47.63 113.95 67.26 79.95 39.26 31.45 0 31.45"/><polygon class="cls-4" points="111.53 31.45 56.15 125.45 77.06 159.49 151.15 31.45 111.53 31.45"/><polygon class="cls-5" points="177.15 32.45 121.15 128.45 143.06 159.49 216.41 32.45 177.15 32.45"/><g><path class="cls-3" d="M297.54,119.23h-73.71c1.06,6.5,3.91,11.67,8.53,15.51,4.62,3.84,10.52,5.76,17.69,5.76,8.57,0,15.94-3,22.11-8.99l19.33,9.08c-4.82,6.84-10.59,11.89-17.31,15.17-6.72,3.28-14.71,4.92-23.96,4.92-14.34,0-26.03-4.52-35.05-13.57-9.02-9.05-13.53-20.38-13.53-34s4.5-25.54,13.49-34.75c8.99-9.22,20.27-13.83,33.83-13.83,14.4,0,26.11,4.61,35.13,13.83,9.02,9.22,13.53,21.39,13.53,36.52l-.08,4.37Zm-22.95-18.07c-1.52-5.1-4.5-9.25-8.97-12.44-4.46-3.19-9.64-4.79-15.53-4.79-6.4,0-12.01,1.79-16.84,5.38-3.03,2.24-5.84,6.19-8.42,11.85h49.76Z"/><path class="cls-3" d="M338.89,31.57v45.39c4.15-4.15,8.63-7.26,13.45-9.33,4.82-2.07,9.97-3.11,15.46-3.11,11.94,0,22.08,4.51,30.43,13.53,8.35,9.02,12.52,20.59,12.52,34.71s-4.32,25-12.94,34.17c-8.63,9.16-18.86,13.74-30.68,13.74-5.27,0-10.17-.94-14.71-2.82-4.54-1.88-9.05-4.95-13.53-9.2v9.67h-22.78V31.57h22.78Zm24.12,54.13c-7.23,0-13.22,2.47-17.99,7.4-4.76,4.93-7.14,11.38-7.14,19.33s2.38,14.7,7.14,19.71c4.76,5.02,10.76,7.52,17.99,7.52s12.9-2.55,17.69-7.65c4.79-5.1,7.19-11.6,7.19-19.5s-2.35-14.27-7.06-19.29c-4.71-5.01-10.65-7.52-17.82-7.52Z"/></g><g><path class="cls-2" d="M139.47,17.9c.1,0,.18,.04,.25,.1l.6,.64c-.44,.47-.92,.89-1.44,1.27-.52,.38-1.09,.7-1.7,.96-.62,.27-1.29,.47-2.03,.62s-1.54,.22-2.42,.22c-1.47,0-2.82-.26-4.04-.77-1.23-.52-2.28-1.25-3.15-2.19-.88-.94-1.56-2.09-2.05-3.43-.49-1.34-.74-2.83-.74-4.47s.25-3.08,.76-4.41c.5-1.33,1.21-2.47,2.13-3.43s2.01-1.7,3.29-2.22c1.27-.52,2.68-.79,4.22-.79,.77,0,1.48,.06,2.12,.17,.64,.12,1.24,.28,1.79,.5,.55,.21,1.08,.48,1.57,.8,.49,.32,.97,.69,1.44,1.11l-.46,.68c-.08,.12-.21,.18-.38,.18-.09,0-.21-.05-.34-.16-.14-.1-.32-.23-.53-.39-.22-.16-.48-.33-.78-.51-.31-.18-.67-.35-1.09-.51-.42-.15-.91-.28-1.46-.39-.55-.11-1.17-.16-1.88-.16-1.29,0-2.47,.22-3.55,.67s-2.01,1.08-2.79,1.9c-.78,.83-1.39,1.83-1.82,3-.44,1.18-.65,2.49-.65,3.95s.21,2.84,.64,4.02,1.03,2.18,1.79,2.99c.76,.82,1.66,1.44,2.69,1.88s2.16,.65,3.37,.65c.76,0,1.44-.05,2.03-.15,.59-.1,1.14-.25,1.64-.45,.5-.2,.96-.45,1.39-.73,.43-.29,.86-.63,1.28-1.02,.05-.04,.1-.07,.14-.1,.04-.02,.1-.04,.16-.04Z"/><path class="cls-2" d="M146.68,20.16h10.06v1.3h-11.59V.24h1.53V20.16Z"/><path class="cls-2" d="M173.22,.24V1.52h-11.17V10.1h9.3v1.24h-9.3v8.85h11.17v1.28h-12.72V.24h12.72Z"/><path class="cls-2" d="M175.3,.24h1.21c.14,0,.25,.04,.35,.11,.09,.07,.16,.17,.21,.29l7.23,17.61c.19,.46,.34,.95,.46,1.47,.11-.54,.25-1.03,.44-1.47L192.42,.65c.05-.11,.12-.21,.22-.29,.09-.08,.21-.12,.35-.12h1.2l-8.76,21.22h-1.37L175.3,.24Z"/><path class="cls-2" d="M210.28,.24V1.52h-11.17V10.1h9.3v1.24h-9.3v8.85h11.17v1.28h-12.72V.24h12.72Z"/><path class="cls-2" d="M216.82,20.16h10.06v1.3h-11.59V.24h1.53V20.16Z"/><path class="cls-2" d="M246.61,21.46h-1.18c-.14,0-.25-.04-.34-.11-.09-.08-.16-.17-.21-.29l-2.5-6.17h-10.42l-2.49,6.17c-.04,.11-.11,.21-.21,.29-.1,.08-.22,.12-.36,.12h-1.17L236.4,.24h1.53l8.68,21.22Zm-14.21-7.71h9.51l-4.33-10.73c-.07-.17-.14-.36-.21-.58-.07-.21-.14-.44-.21-.68-.07,.24-.14,.47-.21,.68-.07,.21-.14,.41-.21,.59l-4.33,10.71Z"/><path class="cls-2" d="M251.05,.29c.08,.04,.17,.11,.25,.23l13.74,18.39c-.03-.3-.04-.59-.04-.87V.24h1.35V21.46h-.73c-.23,0-.42-.1-.55-.3l-13.8-18.42c.03,.3,.04,.58,.04,.85V21.46h-1.33V.24h.75c.14,0,.25,.02,.33,.05Z"/><path class="cls-2" d="M290.52,10.85c0,1.64-.25,3.12-.74,4.42s-1.18,2.42-2.07,3.34c-.89,.92-1.96,1.62-3.19,2.12-1.24,.49-2.62,.73-4.12,.73h-7.74V.24h7.74c1.51,0,2.88,.25,4.12,.73,1.24,.49,2.3,1.2,3.19,2.12,.89,.92,1.58,2.04,2.07,3.35s.74,2.78,.74,4.41Zm-1.59,0c0-1.48-.21-2.8-.61-3.96-.41-1.16-.99-2.14-1.73-2.94-.75-.8-1.64-1.41-2.69-1.83-1.05-.42-2.21-.63-3.49-.63h-6.2V20.22h6.2c1.28,0,2.44-.21,3.49-.63,1.05-.42,1.95-1.03,2.69-1.83,.74-.8,1.32-1.78,1.73-2.94,.41-1.16,.61-2.48,.61-3.97Z"/></g><rect class="cls-2" x=".15" y="10.45" width="113" height="2"/><rect class="cls-2" x="298.15" y="10.45" width="113" height="2"/></g></svg>