<?xml version="1.0" encoding="UTF-8"?>
<svg id="Layer_2" data-name="Layer 2" xmlns="http://www.w3.org/2000/svg" viewBox="0 0 122.8 64.6">
  <defs>
    <style>
      .cls-1 {
        fill: #fff;
      }
    </style>
  </defs>
  <g id="Layer_1-2" data-name="Layer 1">
    <path id="Icon_simple-php" data-name="Icon simple-php" class="cls-1" d="m35.87,23.12h-4.83l-2.64,13.55h4.29c2.84,0,4.96-.54,6.35-1.61,1.56-1.38,2.56-3.29,2.81-5.37.47-2.4.26-4.1-.63-5.09-.9-.99-2.68-1.48-5.36-1.48h0ZM61.4,0C27.49,0,0,14.46,0,32.3s27.49,32.3,61.4,32.3,61.4-14.47,61.4-32.3S95.31,0,61.4,0Zm-16.68,38.13c-1.33,1.28-2.94,2.24-4.69,2.82-2.14.61-4.35.9-6.58.84h-6.04l-1.67,8.6h-7.05l6.29-32.37h13.56c4.08,0,7.05,1.07,8.92,3.21,1.87,2.14,2.43,5.13,1.69,8.96-.56,3.06-2.12,5.85-4.43,7.93h0Zm20.59,3.66l2.78-14.32c.32-1.63.2-2.74-.35-3.33s-1.72-.89-3.51-.89h-5.59l-3.6,18.55h-7l6.29-32.37h6.99l-1.67,8.61h6.23c3.92,0,6.63.68,8.11,2.05,1.49,1.37,1.93,3.58,1.35,6.65l-2.93,15.06s-7.11,0-7.11,0Zm38.87-11.59c-.28,1.52-.81,2.98-1.56,4.33-.76,1.34-1.73,2.56-2.87,3.6-1.34,1.28-2.94,2.24-4.69,2.82-2.14.61-4.36.9-6.58.84h-6.04l-1.67,8.61h-7.05l6.29-32.37h13.55c4.08,0,7.05,1.07,8.92,3.21,1.87,2.14,2.44,5.13,1.69,8.96h0Zm-13.28-7.07h-4.83l-2.64,13.55h4.29c2.85,0,4.97-.53,6.35-1.6,1.56-1.39,2.56-3.3,2.82-5.37.47-2.4.25-4.1-.64-5.09s-2.68-1.48-5.36-1.48h0Z"/>
  </g>
</svg>