<?xml version="1.0" encoding="UTF-8"?>
<svg id="Layer_2" data-name="Layer 2" xmlns="http://www.w3.org/2000/svg" viewBox="0 0 106.88 93.53">
  <defs>
    <style>
      .cls-1 {
        fill: #00e1fe;
      }
    </style>
  </defs>
  <g id="Layer_1-2" data-name="Layer 1">
    <path id="Icon_awesome-react" data-name="Icon awesome-react" class="cls-1" d="m87.3,30.31c-1.13-.37-2.25-.73-3.38-1.06.19-.77.36-1.55.52-2.32,2.57-12.44.88-22.44-4.82-25.74-5.49-3.15-14.45.12-23.51,8.02-.9.77-1.77,1.59-2.61,2.4-.56-.54-1.15-1.09-1.73-1.61C42.27,1.56,32.75-1.99,27.05,1.33c-5.47,3.17-7.1,12.59-4.8,24.36.23,1.17.48,2.32.77,3.49-1.34.38-2.65.79-3.88,1.23C8,34.27,0,40.37,0,46.67s8.52,13.05,20.1,17.01c.94.31,1.88.63,2.84.9-.31,1.25-.58,2.48-.83,3.76-2.19,11.59-.48,20.77,4.99,23.92,5.64,3.26,15.11-.08,24.34-8.16.73-.65,1.46-1.32,2.19-2.03.92.9,1.88,1.75,2.84,2.59,8.93,7.68,17.77,10.79,23.22,7.64,5.64-3.26,7.47-13.13,5.09-25.16-.19-.92-.4-1.86-.63-2.82.67-.19,1.32-.4,1.96-.61,12.04-3.99,20.77-10.44,20.77-17.06s-8.22-12.46-19.58-16.37h0Zm-28.24-17.72c7.77-6.76,15.01-9.41,18.31-7.51,3.53,2.03,4.89,10.21,2.67,20.96-.15.71-.29,1.4-.48,2.09-4.63-1.05-9.32-1.79-14.05-2.21-2.71-3.89-5.68-7.59-8.89-11.09.81-.77,1.61-1.5,2.44-2.23Zm-24.16,44.92c1.06,1.82,2.15,3.63,3.3,5.41-3.25-.35-6.49-.88-9.68-1.57.98-3.15,2.11-6.25,3.4-9.29.96,1.84,1.94,3.65,2.99,5.45h0Zm-6.32-25.11c3.01-.67,6.2-1.21,9.52-1.63-1.11,1.73-2.19,3.51-3.22,5.3-1.02,1.77-2.03,3.59-2.96,5.43-1.32-3.11-2.42-6.16-3.34-9.1Zm5.72,14.38c1.38-2.88,2.88-5.7,4.47-8.47s3.3-5.47,5.09-8.12c3.13-.23,6.33-.35,9.58-.35s6.47.12,9.58.35c1.77,2.63,3.47,5.32,5.07,8.08s3.12,5.57,4.53,8.43c-1.4,2.88-2.9,5.72-4.51,8.52-1.59,2.78-3.28,5.47-5.05,8.14-3.11.23-6.35.33-9.62.33s-6.45-.1-9.52-.29c-1.82-2.65-3.53-5.37-5.14-8.14-1.61-2.78-3.09-5.6-4.49-8.48h0Zm37.7,10.69c1.07-1.84,2.07-3.69,3.05-5.57,1.33,3.02,2.51,6.11,3.53,9.25-3.24.73-6.51,1.29-9.81,1.67,1.13-1.75,2.19-3.55,3.24-5.34Zm3.01-15.97c-.98-1.84-1.98-3.67-3.03-5.47-1.02-1.77-2.09-3.53-3.19-5.26,3.22.39,6.42.95,9.58,1.67-.96,3.08-2.08,6.1-3.36,9.06Zm-21.52-23.48c2.19,2.38,4.25,4.87,6.18,7.47-4.13-.19-8.29-.19-12.42,0,2.05-2.69,4.16-5.2,6.24-7.47ZM29.27,5.22c3.51-2.05,11.29.88,19.5,8.14.52.46,1.04.96,1.59,1.46-3.23,3.49-6.22,7.19-8.95,11.09-4.72.42-9.4,1.15-14.03,2.17-.27-1.07-.5-2.15-.73-3.24-1.96-10.1-.67-17.72,2.63-19.62h0Zm-5.11,55.03c-.88-.25-1.73-.52-2.59-.81-4.73-1.39-9.18-3.6-13.15-6.51-2.11-1.46-3.53-3.71-3.93-6.24,0-3.82,6.6-8.7,16.12-12.02,1.19-.42,2.4-.79,3.61-1.15,1.42,4.53,3.13,8.97,5.11,13.28-2.01,4.37-3.74,8.87-5.18,13.47Zm24.34,20.46c-3.44,3.15-7.43,5.65-11.77,7.37-2.31,1.11-4.98,1.21-7.37.27-3.32-1.92-4.7-9.29-2.82-19.21.23-1.17.48-2.34.77-3.49,4.67,1.01,9.41,1.69,14.17,2.05,2.76,3.91,5.78,7.63,9.02,11.15-.67.65-1.34,1.27-2.01,1.86Zm5.11-5.07c-2.13-2.3-4.26-4.84-6.33-7.58,2,.08,4.07.12,6.16.12s4.26-.04,6.35-.15c-1.92,2.64-3.98,5.18-6.18,7.6h0Zm27.28,6.26c-.19,2.56-1.44,4.93-3.44,6.53-3.32,1.92-10.4-.58-18.04-7.14-.88-.75-1.75-1.57-2.65-2.4,3.19-3.52,6.13-7.26,8.81-11.19,4.79-.4,9.55-1.13,14.24-2.19.21.86.4,1.71.56,2.55,1.02,4.54,1.2,9.23.52,13.84h0Zm3.8-22.44c-.58.19-1.17.38-1.77.54-1.47-4.55-3.25-9-5.32-13.32,2-4.26,3.7-8.64,5.11-13.13,1.09.31,2.13.65,3.13.98,9.73,3.34,16.55,8.31,16.55,12.11,0,4.09-7.29,9.37-17.7,12.82h0Zm-31.25-3.13c5.28,0,9.56-4.28,9.56-9.56,0-5.28-4.28-9.56-9.56-9.56-5.28,0-9.56,4.28-9.56,9.56,0,5.28,4.28,9.56,9.56,9.56h0Z"/>
  </g>
</svg>