<?xml version="1.0" encoding="UTF-8"?>
<svg id="Layer_2" data-name="Layer 2" xmlns="http://www.w3.org/2000/svg" viewBox="0 0 109.82 110.01">
  <defs>
    <style>
      .cls-1 {
        fill: #fff;
      }

      .cls-2 {
        fill: #ffce31;
      }

      .cls-3 {
        fill: #c8b100;
      }

      .cls-4 {
        fill: #c7b500;
      }

      .cls-5 {
        fill: #ed4c5c;
      }

      .cls-6 {
        fill: #005bbf;
      }
    </style>
  </defs>
  <g id="Layer_1-2" data-name="Layer 1">
    <g id="flag-for-spain-svgrepo-com">
      <path id="Path_59" data-name="Path 59" class="cls-2" d="m0,55.01c-.02,10.38,2.91,20.55,8.43,29.33h92.95c11.24-17.94,11.24-40.73,0-58.67H8.43C2.91,34.46-.02,44.63,0,55.01Z"/>
      <g id="Group_5" data-name="Group 5">
        <path id="Path_60" data-name="Path 60" class="cls-5" d="m101.57,25.67C85.32-.04,51.31-7.73,25.59,8.52c-6.92,4.37-12.78,10.23-17.16,17.16h93.13Z"/>
        <path id="Path_61" data-name="Path 61" class="cls-5" d="m8.43,84.34c16.24,25.72,50.26,33.4,75.98,17.16,6.92-4.37,12.78-10.23,17.16-17.16H8.43Z"/>
      </g>
      <g id="Group_6" data-name="Group 6">
        <path id="Path_62" data-name="Path 62" class="cls-3" d="m13.2,48.96h5.87v3.3h-5.87v-3.3Z"/>
        <path id="Path_63" data-name="Path 63" class="cls-3" d="m13.2,73.16h6.05v3.12h-6.05v-3.12Z"/>
      </g>
      <path id="Path_64" data-name="Path 64" class="cls-5" d="m12.65,68.02c-.55.37-.92.73-.92.92s.18.37.55.55.73.55.55.92c.32-.28.52-.67.55-1.1-.01-.52-.29-1.01-.73-1.28"/>
      <path id="Path_65" data-name="Path 65" class="cls-1" d="m14.12,52.26h4.22v20.9h-4.22v-20.9Z"/>
      <g id="Group_7" data-name="Group 7">
        <path id="Path_66" data-name="Path 66" class="cls-5" d="m22.73,59.96c-1.41-.5-2.9-.75-4.4-.73-.68-.02-1.35.04-2.02.18-2.57.37-4.58,1.47-4.4,2.2l-.92-2.02c-.18-.92,2.02-2.02,4.77-2.57.85-.15,1.71-.21,2.57-.18,1.49-.06,2.97.13,4.4.55v2.57"/>
        <path id="Path_67" data-name="Path 67" class="cls-5" d="m14.12,62.71c-1.1,0-2.02-.37-2.02-.92.12-.59.54-1.07,1.1-1.28h1.1l-.18,2.2"/>
        <path id="Path_68" data-name="Path 68" class="cls-5" d="m18.33,61.06c.57.13,1.12.31,1.65.55.18.18-.55.92-1.65,1.47v-2.02"/>
        <path id="Path_69" data-name="Path 69" class="cls-5" d="m11.37,66.74c-.18-.37,1.1-1.1,2.75-1.65.75-.26,1.49-.57,2.2-.92,2.2-.92,4.03-2.2,3.67-2.57l.37,2.2c.18.37-1.28,1.47-3.48,2.57-.88.45-1.8.81-2.75,1.1-.9.2-1.72.64-2.38,1.28l-.37-2.02"/>
      </g>
      <g id="Group_8" data-name="Group 8">
        <path id="Path_70" data-name="Path 70" class="cls-3" d="m52.62,48.96h5.87v3.3h-5.87v-3.3Z"/>
        <path id="Path_71" data-name="Path 71" class="cls-3" d="m52.43,73.16h6.05v3.12h-6.05v-3.12Z"/>
      </g>
      <path id="Path_72" data-name="Path 72" class="cls-5" d="m59.03,68.02c.55.37.92.73.92.92s-.18.37-.55.55c-.37.37-.73.92-.55,1.1-.32-.28-.52-.67-.55-1.1-.04-.58.24-1.14.73-1.47"/>
      <path id="Path_73" data-name="Path 73" class="cls-1" d="m53.35,52.26h4.22v20.9h-4.22v-20.9Z"/>
      <g id="Group_9" data-name="Group 9">
        <path id="Path_74" data-name="Path 74" class="cls-5" d="m48.95,59.96c1.41-.5,2.9-.75,4.4-.73.68-.02,1.35.04,2.02.18,2.57.37,4.58,1.47,4.4,2.2l.92-2.2c.18-.92-2.02-2.02-4.77-2.57h-2.57c-1.49-.06-2.97.13-4.4.55v2.57"/>
        <path id="Path_75" data-name="Path 75" class="cls-5" d="m57.57,62.71c1.1,0,2.02-.37,2.02-.92-.12-.59-.54-1.07-1.1-1.28h-1.1l.18,2.2"/>
        <path id="Path_76" data-name="Path 76" class="cls-5" d="m53.35,61.06c-.57.13-1.12.31-1.65.55-.18.18.55.92,1.65,1.47v-2.02"/>
        <path id="Path_77" data-name="Path 77" class="cls-5" d="m60.32,66.74c.18-.37-1.1-1.1-2.75-1.65-.75-.26-1.49-.57-2.2-.92-2.2-.92-4.03-2.2-3.67-2.57l-.37,2.2c-.18.37,1.28,1.47,3.48,2.57.88.45,1.8.81,2.75,1.1,1.28.37,2.38,1.28,2.2,1.47l.55-2.2"/>
        <path id="Path_78" data-name="Path 78" class="cls-5" d="m35.75,37.22c3.48,0,10.63.73,13.2,3.3-2.75,6.6-7.15,3.85-13.2,3.85s-10.45,2.75-13.2-3.85c2.57-2.57,9.53-3.3,13.2-3.3"/>
      </g>
      <g id="Group_10" data-name="Group 10">
        <path id="Path_79" data-name="Path 79" class="cls-3" d="m44.73,44.56c-2.2-1.28-5.5-1.47-8.98-1.47s-6.78.37-8.98,1.47l.73,3.12c2.7.65,5.47.96,8.25.92,2.78.03,5.55-.28,8.25-.92l.73-3.12"/>
        <path id="Path_80" data-name="Path 80" class="cls-3" d="m47.85,36.67c-1.03-.69-2.24-1.07-3.48-1.1-.56-.03-1.11.03-1.65.18-.94-1.02-2.29-1.55-3.67-1.47-.83-.01-1.65.18-2.38.55v-.18c-.16-.39-.51-.66-.92-.73-.46.09-.82.46-.92.92v.18c-.74-.37-1.56-.56-2.38-.55-1.36.01-2.67.53-3.67,1.47-.54-.15-1.09-.21-1.65-.18-8.43,0-4.22,5.68-4.22,5.68l.92-1.1c-2.02-2.57-.18-4.03,3.48-4.03.44-.04.88.02,1.28.18-1.28,1.83,1.1,3.48,1.1,3.48l.55-.92c-1.28-.92-1.47-4.03,2.2-4.03.86-.04,1.7.22,2.38.73-.04,1.05-.16,2.09-.37,3.12l1.47,1.28,1.47-1.28c-.19-1.03-.31-2.07-.37-3.12.71-.46,1.54-.71,2.38-.73,3.85,0,3.85,3.12,2.2,4.03l.55.92s2.02-1.65,1.1-3.48c.37,0,.92-.18,1.28-.18,4.4,0,4.58,3.3,3.48,4.03l.73,1.1c-.37,0,1.65-2.57-.92-4.77"/>
      </g>
      <path id="Path_81" data-name="Path 81" class="cls-6" d="m34.65,33.19c.04-.59.51-1.06,1.1-1.1.58-.02,1.08.43,1.1,1.01,0,.03,0,.06,0,.09,0,.61-.49,1.1-1.1,1.1s-1.1-.49-1.1-1.1"/>
      <path id="Path_82" data-name="Path 82" class="cls-3" d="m35.38,30.07v.55h-.55v.55h.55v1.83h-.73v.55h2.2l.18-.37-.18-.18h-.73v-1.83h.55v-.55h-.55v-.55h-.73Z"/>
      <path id="Path_83" data-name="Path 83" class="cls-5" d="m35.75,48.22c-2.53.02-5.06-.28-7.52-.92,2.45-.63,4.98-.94,7.52-.92,2.53-.02,5.06.28,7.52.92-2.45.64-4.98.95-7.52.92"/>
      <g id="Group_11" data-name="Group 11">
        <path id="Path_84" data-name="Path 84" class="cls-1" d="m35.93,79.94c-3.36-.06-6.66-.8-9.72-2.2-2.14-.99-3.5-3.14-3.48-5.5v-8.8h26.4v8.8c-.01,2.35-1.37,4.48-3.48,5.5-3.02,1.48-6.35,2.23-9.72,2.2"/>
        <path id="Path_85" data-name="Path 85" class="cls-1" d="m35.75,48.77h13.2v14.67h-13.2v-14.67Z"/>
      </g>
      <path id="Path_86" data-name="Path 86" class="cls-5" d="m35.93,72.24c-.08,3.53-3.01,6.32-6.53,6.23-.02,0-.05,0-.07,0-3.52.12-6.48-2.64-6.6-6.16,0-.02,0-.05,0-.07v-8.8h13.2v8.8"/>
      <g id="Group_12" data-name="Group 12">
        <path id="Path_87" data-name="Path 87" class="cls-3" d="m25.48,77.37c.52.31,1.07.56,1.65.73v-15.03h-1.47l-.18,14.3"/>
        <path id="Path_88" data-name="Path 88" class="cls-3" d="m22.55,72.06c-.04,1.48.49,2.92,1.47,4.03v-13.02h-1.47v8.98"/>
      </g>
      <path id="Path_89" data-name="Path 89" class="cls-4" d="m28.42,78.47h1.47v-15.4h-1.47v15.4"/>
      <path id="Path_90" data-name="Path 90" class="cls-3" d="m31.35,78.11c.56-.21,1.12-.45,1.65-.73v-14.3h-1.47l-.18,15.03"/>
      <path id="Path_91" data-name="Path 91" class="cls-5" d="m22.55,48.77h13.2v14.67h-13.2v-14.67Z"/>
      <path id="Path_92" data-name="Path 92" class="cls-3" d="m34.47,76.09c.88-.88,1.4-2.06,1.47-3.3v-9.53h-1.47v12.83"/>
      <g id="Group_13" data-name="Group 13">
        <path id="Path_93" data-name="Path 93" class="cls-5" d="m49.13,63.44v8.8c-.08,3.53-3.01,6.32-6.53,6.23-.02,0-.05,0-.07,0-3.52.12-6.48-2.64-6.6-6.16,0-.02,0-.05,0-.07v-8.8h13.2"/>
        <path id="Path_94" data-name="Path 94" class="cls-5" d="m44.37,51.34c.55,1.1.55,3.85-1.1,3.3.37.18.55,1.47,1.1,2.2.92,1.1,2.02.18,1.83-1.1-.31-1.77-.24-3.58.18-5.32,0,.18.92.18,1.28-.18-.18.55-.37,1.28,0,1.28-.55.63-1.04,1.3-1.47,2.02-.18,1.28,1.83,3.67-.37,4.22-1.47.37-.55,1.47,0,2.02,0,0-.73,2.38-.37,2.2-1.47.55-1.1-.73-1.1-.73.73-2.2-1.28-2.38-1.1-2.75-1.83-.18.18,1.65-1.47,1.65-.38.06-.75.19-1.1.37-2.02-.18-.92-2.02-.18-1.83.55.18,1.1,1.1,1.1-.18,0,0-.92-1.47,1.47-1.47-.92,0-1.47-.73-1.83-1.65-.8.76-1.83,1.21-2.93,1.28,0,0-.55-2.02,0-1.65.73.37,1.1.37,1.83-.37-.37-.55-2.57-1.28-2.2-2.57,0-.37,1.1-.92,1.1-.92-.21.78.26,1.58,1.04,1.79.14.04.28.05.43.05,1.47.18.92-.37,1.1-.73s1.28.18.92-.73c0-.18-1.28-.37-.92-.92.73-.92,1.83-.18,2.75.73"/>
        <path id="Path_95" data-name="Path 95" class="cls-5" d="m35.93,78.11l-.37-.92.37-1.1.37,1.1-.37.92"/>
      </g>
      <g id="Group_14" data-name="Group 14">
        <path id="Path_96" data-name="Path 96" class="cls-3" d="m26.58,51.89v.92h.37v.73h-.92v1.83h.55v4.03h-1.1v2.02h7.52v-2.02h-.92v-4.03h.37v-1.83h-.92v-.73h.55v-.92h-1.83v.92h.37v.73h-.92v-2.2h.55v-.92h-2.02v.92h.55v2.2h-.92v-.73h.37v-.92h-1.65Z"/>
        <path id="Path_97" data-name="Path 97" class="cls-3" d="m47.3,74.44v-9.17h-9.53v9.17l4.4,2.02h.55l4.58-2.02m-5.13-8.43v3.12l-3.12-3.12h3.12m-3.85.18l3.67,3.67-3.67,3.67v-7.33m.37,8.07l3.48-3.48v5.13l-3.48-1.65m4.03,1.47v-5.13l3.48,3.48-3.48,1.65m3.85-2.2l-3.67-3.67,3.67-3.67v7.33m-3.85-7.52h3.12l-3.12,3.12v-3.12"/>
      </g>
      <path id="Path_98" data-name="Path 98" class="cls-5" d="m31.53,63.26c0-2.75,1.83-4.77,4.22-4.77,2.48.16,4.36,2.29,4.22,4.77.14,2.48-1.74,4.6-4.22,4.77-2.38,0-4.22-2.02-4.22-4.77"/>
      <path id="Path_99" data-name="Path 99" class="cls-6" d="m32.82,63.26c0-2.02,1.28-3.48,2.93-3.48s2.93,1.65,2.93,3.48c0,2.02-1.28,3.48-2.93,3.48-1.47.18-2.93-1.47-2.93-3.48"/>
      <g id="Group_15" data-name="Group 15">
        <path id="Path_100" data-name="Path 100" class="cls-3" d="m34.47,60.87l-.73,2.02.55.18-.37.73h1.1l-.37-.73.55-.18-.73-2.02"/>
        <path id="Path_101" data-name="Path 101" class="cls-3" d="m37.22,60.87l-.73,2.02.55.18-.37.73h1.1l-.18-.73.55-.18-.92-2.02"/>
        <path id="Path_102" data-name="Path 102" class="cls-3" d="m35.93,63.26l-.92,2.02.55.18-.18.73h.92l-.18-.73.55-.18-.73-2.02"/>
      </g>
    </g>
  </g>
</svg>