<?xml version="1.0" encoding="UTF-8"?>
<svg id="Layer_2" data-name="Layer 2" xmlns="http://www.w3.org/2000/svg" viewBox="0 0 110 110">
  <defs>
    <style>
      .cls-1 {
        fill: #c42126;
      }

      .cls-2 {
        fill: #f3f4f5;
      }

      .cls-3 {
        fill: #e7e7e7;
      }

      .cls-4 {
        fill: #e73625;
      }

      .cls-5 {
        fill: #efefef;
      }

      .cls-6 {
        fill: #283991;
      }

      .cls-7 {
        fill: #dc3027;
      }
    </style>
  </defs>
  <g id="Layer_1-2" data-name="Layer 1">
    <g id="united-states-of-america-united-states-svgrepo-com">
      <g id="Group_1" data-name="Group 1">
        <rect id="Rectangle_15" data-name="Rectangle 15" class="cls-1" x=".25" y="60.14" width="109.51" height="0"/>
        <rect id="Rectangle_16" data-name="Rectangle 16" class="cls-1" x="5.95" y="30.12" width="98.1" height="0"/>
        <rect id="Rectangle_17" data-name="Rectangle 17" class="cls-1" x="2.05" y="40.13" width="105.89" height="0"/>
        <path id="Path_6" data-name="Path 6" class="cls-1" d="m55,0c-1.08,0-2.15.04-3.22.1h6.43c-1.06-.06-2.13-.1-3.22-.1Z"/>
        <rect id="Rectangle_18" data-name="Rectangle 18" class="cls-1" x=".23" y="50.13" width="109.54" height="0"/>
      </g>
      <path id="Path_7" data-name="Path 7" class="cls-3" d="m71.26,20.11h26.26c-3.13-3.8-6.75-7.16-10.76-10.01h-19.72c1.75,3.18,3.16,6.53,4.22,10.01Z"/>
      <path id="Path_8" data-name="Path 8" class="cls-7" d="m67.04,10.11h19.72C78.37,4.16,68.48.69,58.22.1h-1.69c4.99.63,7.28,4.32,10.51,10.01Z"/>
      <path id="Path_9" data-name="Path 9" class="cls-3" d="m107.95,40.13c-.97-3.45-2.27-6.81-3.9-10.01h-30.21c.61,3.21,1.1,6.57,1.45,10.01h32.66Z"/>
      <path id="Path_10" data-name="Path 10" class="cls-7" d="m72.14,30.12h31.91c-1.81-3.56-4-6.92-6.53-10.01h-27.88c1.03,3.28,1.86,6.63,2.49,10.01Z"/>
      <path id="Path_11" data-name="Path 11" class="cls-3" d="m76.45,60.14h33.31c.16-1.69.25-3.41.25-5.14,0-1.64-.09-3.26-.23-4.87h-33.32c.11,3.33.11,6.68,0,10.01Z"/>
      <path id="Path_12" data-name="Path 12" class="cls-7" d="m109.78,50.13c-.3-3.39-.91-6.74-1.82-10.01h-34.07c.34,3.28.57,6.63.68,10.01h35.21Z"/>
      <path id="Path_13" data-name="Path 13" class="cls-3" d="m73.26,80.16h30.64c1.65-3.2,2.98-6.55,3.96-10.01h-33.13c-.36,3.44-.86,6.8-1.48,10.01Z"/>
      <path id="Path_14" data-name="Path 14" class="cls-7" d="m107.87,70.15c.94-3.27,1.57-6.62,1.88-10.01h-34.35c-.12,3.38-.35,6.73-.7,10.01h33.16Z"/>
      <path id="Path_15" data-name="Path 15" class="cls-3" d="m86.37,100.17c4.07-2.83,7.74-6.2,10.92-10.01h-25.8c-1.07,3.48-2.51,6.83-4.3,10.01h19.18Z"/>
      <g id="Group_2" data-name="Group 2">
        <path id="Path_16" data-name="Path 16" class="cls-7" d="m70.51,90.16h26.77c2.56-3.08,4.78-6.44,6.62-10.01h-30.87c-.64,3.38-1.49,6.72-2.52,10.01Z"/>
        <path id="Path_17" data-name="Path 17" class="cls-7" d="m53.01,109.96h-.33s.33,0,.33,0Z"/>
        <path id="Path_18" data-name="Path 18" class="cls-7" d="m55,110c11.21.01,22.16-3.42,31.36-9.83h-19.91c-3.53,6.09-5.86,9.83-11.46,9.83Z"/>
      </g>
      <path id="Path_19" data-name="Path 19" class="cls-1" d="m55,110c-.67,0-1.33-.02-1.99-.04.67.02,1.33.04,1.99.04Z"/>
      <path id="Path_20" data-name="Path 20" class="cls-2" d="m68.86,10.11H23.25c-4.02,2.84-7.64,6.21-10.76,10h60.59c-1.05-3.47-2.47-6.83-4.22-10Z"/>
      <path id="Path_21" data-name="Path 21" class="cls-4" d="m23.25,10.11h45.61C65.62,4.42,61.51.73,56.52.1h-4.74c-10.26.59-20.16,4.06-28.54,10.01Z"/>
      <path id="Path_22" data-name="Path 22" class="cls-2" d="m2.05,40.13h74.97c-.36-3.44-.84-6.79-1.45-10.01H5.95c-1.63,3.2-2.93,6.55-3.9,10.01Z"/>
      <path id="Path_23" data-name="Path 23" class="cls-4" d="m12.48,20.11c-2.53,3.09-4.72,6.44-6.53,10.01h69.61c-.63-3.38-1.47-6.72-2.49-10.01H12.48Z"/>
      <path id="Path_24" data-name="Path 24" class="cls-2" d="m0,55c0,1.73.09,3.45.25,5.14h77.45c.11-3.33.12-6.68,0-10.01H.23c-.14,1.6-.23,3.22-.23,4.86Z"/>
      <path id="Path_25" data-name="Path 25" class="cls-4" d="m.23,50.13h77.47c-.11-3.38-.34-6.73-.68-10.01H2.05c-.92,3.27-1.53,6.62-1.82,10.01Z"/>
      <path id="Path_26" data-name="Path 26" class="cls-2" d="m77,70.15H2.13c.99,3.46,2.32,6.81,3.97,10.01h69.42c.62-3.21,1.12-6.56,1.48-10.01Z"/>
      <path id="Path_27" data-name="Path 27" class="cls-4" d="m2.13,70.15h74.86c.35-3.27.58-6.63.7-10.01H.25c.32,3.39.95,6.74,1.88,10.01Z"/>
      <path id="Path_28" data-name="Path 28" class="cls-2" d="m23.64,100.17h45.05c1.79-3.17,3.23-6.53,4.3-10.01H12.72c3.17,3.81,6.85,7.17,10.92,10.01Z"/>
      <g id="Group_3" data-name="Group 3">
        <path id="Path_29" data-name="Path 29" class="cls-4" d="m6.1,80.16c1.84,3.57,4.05,6.92,6.62,10.01h60.27c1.04-3.28,1.88-6.62,2.52-10.01H6.1Z"/>
        <path id="Path_30" data-name="Path 30" class="cls-4" d="m52.67,109.95h.33c.66.04,1.32.05,1.99.05,5.59,0,10.15-3.74,13.69-9.83H23.64c8.55,5.96,18.62,9.35,29.03,9.78Z"/>
      </g>
      <path id="Path_31" data-name="Path 31" class="cls-6" d="m53.87.03C25.86.61,2.76,22.15.24,50.04h53.63V.03h0Z"/>
      <g id="Group_4" data-name="Group 4">
        <path id="Path_32" data-name="Path 32" class="cls-5" d="m11.01,31.16l.84,2.58h2.72l-2.2,1.6.84,2.58-2.2-1.6-2.19,1.6.84-2.58-2.2-1.6h2.72l.85-2.58Z"/>
        <path id="Path_33" data-name="Path 33" class="cls-5" d="m11.01,40.28l.84,2.58h2.72l-2.2,1.6.84,2.58-2.2-1.6-2.19,1.6.84-2.58-2.2-1.6h2.72l.85-2.58Z"/>
        <path id="Path_34" data-name="Path 34" class="cls-5" d="m20.13,17.49l.84,2.58h2.71l-2.2,1.6.84,2.58-2.19-1.6-2.2,1.59.84-2.58-2.2-1.6h2.72l.84-2.57Z"/>
        <path id="Path_35" data-name="Path 35" class="cls-5" d="m20.13,26.6l.84,2.58h2.71l-2.2,1.59.84,2.58-2.19-1.59-2.2,1.59.84-2.58-2.2-1.59h2.72l.84-2.58Z"/>
        <path id="Path_36" data-name="Path 36" class="cls-5" d="m20.13,35.72l.84,2.58h2.71l-2.2,1.59.84,2.58-2.19-1.6-2.2,1.6.84-2.58-2.2-1.59h2.73l.84-2.58Z"/>
        <path id="Path_37" data-name="Path 37" class="cls-5" d="m4.08,42.48l-.84-2.58,2.2-1.59h-2.72l-.06-.19c-.3.92-.57,1.85-.82,2.8l.04-.03,2.19,1.59Z"/>
        <path id="Path_38" data-name="Path 38" class="cls-5" d="m8.81,28.8l2.19-1.6,2.2,1.6-.84-2.58,2.2-1.6h-2.72l-.84-2.58-.84,2.58h-1c-.19.28-.37.57-.55.85l1.03.75-.84,2.59Z"/>
        <path id="Path_39" data-name="Path 39" class="cls-5" d="m20.12,13.53l2.19,1.59-.84-2.58,2.19-1.6h-1.57c-1.33,1-2.62,2.05-3.85,3.16l-.33,1.02,2.2-1.59Z"/>
        <path id="Path_40" data-name="Path 40" class="cls-5" d="m27.05,10.57l2.2-1.6,2.19,1.6-.85-2.58,2.19-1.59h-2.71l-.11-.35c-.92.47-1.83.96-2.72,1.48l.64.46-.83,2.58Z"/>
        <path id="Path_41" data-name="Path 41" class="cls-5" d="m29.24,12.93l.84,2.58h2.71l-2.2,1.6.84,2.58-2.19-1.6-2.2,1.6.84-2.58-2.2-1.6h2.71l.85-2.58Z"/>
        <path id="Path_42" data-name="Path 42" class="cls-5" d="m29.24,22.05l.84,2.58h2.71l-2.2,1.6.84,2.58-2.19-1.6-2.2,1.6.84-2.59-2.2-1.6h2.71l.84-2.57Z"/>
        <path id="Path_43" data-name="Path 43" class="cls-5" d="m29.24,31.16l.84,2.58h2.71l-2.2,1.6.84,2.58-2.19-1.6-2.2,1.6.84-2.58-2.2-1.6h2.71l.85-2.58Z"/>
        <path id="Path_44" data-name="Path 44" class="cls-5" d="m29.24,40.28l.84,2.58h2.71l-2.2,1.6.84,2.58-2.19-1.6-2.2,1.6.84-2.58-2.2-1.6h2.71l.85-2.58Z"/>
        <path id="Path_45" data-name="Path 45" class="cls-5" d="m38.36,8.37l.84,2.58h2.71l-2.2,1.6.84,2.58-2.19-1.6-2.2,1.59.84-2.58-2.2-1.6h2.71l.85-2.58Z"/>
        <path id="Path_46" data-name="Path 46" class="cls-5" d="m38.36,17.49l.84,2.58h2.71l-2.2,1.6.84,2.58-2.2-1.59-2.2,1.59.84-2.58-2.2-1.6h2.71l.85-2.58Z"/>
        <path id="Path_47" data-name="Path 47" class="cls-5" d="m38.36,26.6l.84,2.58h2.71l-2.2,1.59.84,2.58-2.2-1.59-2.2,1.59.84-2.58-2.2-1.59h2.71l.85-2.58Z"/>
        <path id="Path_48" data-name="Path 48" class="cls-5" d="m38.36,35.72l.84,2.58h2.71l-2.2,1.59.84,2.58-2.2-1.6-2.2,1.6.84-2.58-2.2-1.59h2.71l.85-2.58Z"/>
        <path id="Path_49" data-name="Path 49" class="cls-5" d="m47.47,3.81l.84,2.58h2.71l-2.2,1.59.84,2.58-2.2-1.6-2.2,1.6.84-2.58-2.2-1.59h2.71l.85-2.58Z"/>
        <path id="Path_50" data-name="Path 50" class="cls-5" d="m47.47,12.93l.84,2.58h2.71l-2.2,1.6.84,2.58-2.2-1.6-2.2,1.6.84-2.58-2.2-1.6h2.71l.85-2.58Z"/>
        <path id="Path_51" data-name="Path 51" class="cls-5" d="m47.47,22.05l.84,2.58h2.71l-2.2,1.6.84,2.58-2.2-1.6-2.2,1.6.84-2.58-2.2-1.6h2.71l.85-2.58Z"/>
        <path id="Path_52" data-name="Path 52" class="cls-5" d="m47.47,31.16l.84,2.58h2.71l-2.2,1.6.84,2.58-2.2-1.6-2.2,1.6.84-2.58-2.2-1.6h2.71l.85-2.58Z"/>
        <path id="Path_53" data-name="Path 53" class="cls-5" d="m47.47,40.28l.84,2.58h2.71l-2.2,1.6.84,2.58-2.2-1.6-2.2,1.6.84-2.58-2.2-1.6h2.71l.85-2.58Z"/>
      </g>
    </g>
  </g>
</svg>